#Comment line ignore any data following # character 
#Hierarchical Translation and Rotation (.htr) file 
[Header]	
#Header keywords are followed by a single value 
FileType HTR		#Single word string
DataType HTRS		#Translation followed by rotation and scale data
FileVersion 1		#integer
NumSegments 84		#integer
NumFrames 2		#integer
DataFrameRate 30		#integer, data frame rate in this file
EulerRotationOrder ZYX
CalibrationUnits mm
RotationUnits Degrees
GlobalAxisofGravity Y
BoneLengthAxis Y
ScaleFactor 1.00
[SegmentNames&Hierarchy]
#CHILD	PARENT
MASTER GLOBAL
root MASTER
chest root
L_mid_tent01 root
R_mid_tent01 root
spine01 root
Bip01_Neck chest
L_humerus chest
R_humerus chest
weapon_bone chest
Bip01_Head Bip01_Neck
eye_left_bone Bip01_Head
eye_right_bone Bip01_Head
L_forearm L_humerus
L_front_hand L_forearm
L_weapon_bone L_forearm
L_front_hand01_01 L_front_hand
L_front_hand02_01 L_front_hand
L_front_hand03_01 L_front_hand
L_front_hand01_02 L_front_hand01_01
L_front_hand02_02 L_front_hand02_01
L_front_hand03_02 L_front_hand03_01
R_forearm R_humerus
R_front_hand R_forearm
R_weapon_bone R_forearm
R_front_hand01_01 R_front_hand
R_front_hand02_01 R_front_hand
R_front_hand03_01 R_front_hand
R_front_hand01_02 R_front_hand01_01
R_front_hand02_02 R_front_hand02_01
R_front_hand03_02 R_front_hand03_01
null_rope01_connect L_mid_tent01
Rope1_Seg01 null_rope01_connect
Rope1_Seg02 Rope1_Seg01
Rope1_Seg03 Rope1_Seg02
Rope1_Seg04 Rope1_Seg03
Rope1_Seg05 Rope1_Seg04
Rope1_Seg06 Rope1_Seg05
Rope1_Seg07 Rope1_Seg06
Rope1_Seg09 Rope1_Seg07
L_mid_hand01 Rope1_Seg09
L_mid_hand02 Rope1_Seg09
L_mid_hand03 Rope1_Seg09
null_rope02_connect R_mid_tent01
Rope2_Seg01 null_rope02_connect
Rope2_Seg02 Rope2_Seg01
Rope2_Seg03 Rope2_Seg02
Rope2_Seg04 Rope2_Seg03
Rope2_Seg05 Rope2_Seg04
Rope2_Seg06 Rope2_Seg05
Rope2_Seg07 Rope2_Seg06
Rope2_Seg09 Rope2_Seg07
R_mid_hand01 Rope2_Seg09
R_mid_hand02 Rope2_Seg09
R_mid_hand03 Rope2_Seg09
spine02 spine01
spine03 spine02
pelvis spine03
null_rope03_connect pelvis
null_rope04_connect pelvis
Rope3_Seg01 null_rope03_connect
Rope3_Seg02 Rope3_Seg01
Rope3_Seg03 Rope3_Seg02
Rope3_Seg04 Rope3_Seg03
Rope3_Seg05 Rope3_Seg04
Rope3_Seg06 Rope3_Seg05
Rope3_Seg07 Rope3_Seg06
Rope3_Seg08 Rope3_Seg07
Rope3_Seg09 Rope3_Seg08
R_rear_hand01 Rope3_Seg09
R_rear_hand02 Rope3_Seg09
R_rear_hand03 Rope3_Seg09
Rope4_Seg01 null_rope04_connect
Rope4_Seg02 Rope4_Seg01
Rope4_Seg03 Rope4_Seg02
Rope4_Seg04 Rope4_Seg03
Rope4_Seg05 Rope4_Seg04
Rope4_Seg06 Rope4_Seg05
Rope4_Seg07 Rope4_Seg06
Rope4_Seg08 Rope4_Seg07
Rope4_Seg09 Rope4_Seg08
L_rear_hand01 Rope4_Seg09
L_rear_hand02 Rope4_Seg09
L_rear_hand03 Rope4_Seg09
[BasePosition]
#SegmentName Tx, Ty, Tz, Rx, Ry, Rz, BoneLength
MASTER 0.000000 0.000000 0.000000 -90.000000 0.000000 0.000000 10.000000 
root 0.000000 0.000000 0.000000 0.000000 0.000000 0.000000 10.000000 
chest 0.000000 0.000000 0.000000 0.000000 0.000000 0.000000 10.000000 
L_mid_tent01 0.000000 0.000000 0.000000 0.000000 0.000000 0.000000 10.000000 
R_mid_tent01 0.000000 0.000000 0.000000 0.000000 0.000000 0.000000 10.000000 
spine01 0.000000 0.000000 0.000000 0.000000 0.000000 0.000000 10.000000 
Bip01_Neck 0.000000 0.000000 0.000000 0.000000 0.000000 0.000000 10.000000 
L_humerus 0.000000 0.000000 0.000000 0.000000 0.000000 0.000000 10.000000 
R_humerus 0.000000 0.000000 0.000000 0.000000 0.000000 0.000000 10.000000 
weapon_bone 0.000000 0.000000 0.000000 0.000000 0.000000 0.000000 10.000000 
Bip01_Head 0.000000 0.000000 0.000000 0.000000 0.000000 0.000000 10.000000 
eye_left_bone 0.000000 0.000000 0.000000 0.000000 0.000000 0.000000 10.000000 
eye_right_bone 0.000000 0.000000 0.000000 0.000000 0.000000 0.000000 10.000000 
L_forearm 0.000000 0.000000 0.000000 0.000000 0.000000 0.000000 10.000000 
L_front_hand 0.000000 0.000000 0.000000 0.000000 0.000000 0.000000 10.000000 
L_weapon_bone 0.000000 0.000000 0.000000 0.000000 0.000000 0.000000 10.000000 
L_front_hand01_01 0.000000 0.000000 0.000000 0.000000 0.000000 0.000000 10.000000 
L_front_hand02_01 0.000000 0.000000 0.000000 0.000000 0.000000 0.000000 10.000000 
L_front_hand03_01 0.000000 0.000000 0.000000 0.000000 0.000000 0.000000 10.000000 
L_front_hand01_02 0.000000 0.000000 0.000000 0.000000 0.000000 0.000000 10.000000 
L_front_hand02_02 0.000000 0.000000 0.000000 0.000000 0.000000 0.000000 10.000000 
L_front_hand03_02 0.000000 0.000000 0.000000 0.000000 0.000000 0.000000 10.000000 
R_forearm 0.000000 0.000000 0.000000 0.000000 0.000000 0.000000 10.000000 
R_front_hand 0.000000 0.000000 0.000000 0.000000 0.000000 0.000000 10.000000 
R_weapon_bone 0.000000 0.000000 0.000000 0.000000 0.000000 0.000000 10.000000 
R_front_hand01_01 0.000000 0.000000 0.000000 0.000000 0.000000 0.000000 10.000000 
R_front_hand02_01 0.000000 0.000000 0.000000 0.000000 0.000000 0.000000 10.000000 
R_front_hand03_01 0.000000 0.000000 0.000000 0.000000 0.000000 0.000000 10.000000 
R_front_hand01_02 0.000000 0.000000 0.000000 0.000000 0.000000 0.000000 10.000000 
R_front_hand02_02 0.000000 0.000000 0.000000 0.000000 0.000000 0.000000 10.000000 
R_front_hand03_02 0.000000 0.000000 0.000000 0.000000 0.000000 0.000000 10.000000 
null_rope01_connect 0.000000 0.000000 0.000000 0.000000 0.000000 0.000000 10.000000 
Rope1_Seg01 0.000000 0.000000 0.000000 0.000000 0.000000 0.000000 10.000000 
Rope1_Seg02 0.000000 0.000000 0.000000 0.000000 0.000000 0.000000 10.000000 
Rope1_Seg03 0.000000 0.000000 0.000000 0.000000 0.000000 0.000000 10.000000 
Rope1_Seg04 0.000000 0.000000 0.000000 0.000000 0.000000 0.000000 10.000000 
Rope1_Seg05 0.000000 0.000000 0.000000 0.000000 0.000000 0.000000 10.000000 
Rope1_Seg06 0.000000 0.000000 0.000000 0.000000 0.000000 0.000000 10.000000 
Rope1_Seg07 0.000000 0.000000 0.000000 0.000000 0.000000 0.000000 10.000000 
Rope1_Seg09 0.000000 0.000000 0.000000 0.000000 0.000000 0.000000 10.000000 
L_mid_hand01 0.000000 0.000000 0.000000 0.000000 0.000000 0.000000 10.000000 
L_mid_hand02 0.000000 0.000000 0.000000 0.000000 0.000000 0.000000 10.000000 
L_mid_hand03 0.000000 0.000000 0.000000 0.000000 0.000000 0.000000 10.000000 
null_rope02_connect 0.000000 0.000000 0.000000 0.000000 0.000000 0.000000 10.000000 
Rope2_Seg01 0.000000 0.000000 0.000000 0.000000 0.000000 0.000000 10.000000 
Rope2_Seg02 0.000000 0.000000 0.000000 0.000000 0.000000 0.000000 10.000000 
Rope2_Seg03 0.000000 0.000000 0.000000 0.000000 0.000000 0.000000 10.000000 
Rope2_Seg04 0.000000 0.000000 0.000000 0.000000 0.000000 0.000000 10.000000 
Rope2_Seg05 0.000000 0.000000 0.000000 0.000000 0.000000 0.000000 10.000000 
Rope2_Seg06 0.000000 0.000000 0.000000 0.000000 0.000000 0.000000 10.000000 
Rope2_Seg07 0.000000 0.000000 0.000000 0.000000 0.000000 0.000000 10.000000 
Rope2_Seg09 0.000000 0.000000 0.000000 0.000000 0.000000 0.000000 10.000000 
R_mid_hand01 0.000000 0.000000 0.000000 0.000000 0.000000 0.000000 10.000000 
R_mid_hand02 0.000000 0.000000 0.000000 0.000000 0.000000 0.000000 10.000000 
R_mid_hand03 0.000000 0.000000 0.000000 0.000000 0.000000 0.000000 10.000000 
spine02 0.000000 0.000000 0.000000 0.000000 0.000000 0.000000 10.000000 
spine03 0.000000 0.000000 0.000000 0.000000 0.000000 0.000000 10.000000 
pelvis 0.000000 0.000000 0.000000 0.000000 0.000000 0.000000 10.000000 
null_rope03_connect 0.000000 0.000000 0.000000 0.000000 0.000000 0.000000 10.000000 
null_rope04_connect 0.000000 0.000000 0.000000 0.000000 0.000000 0.000000 10.000000 
Rope3_Seg01 0.000000 0.000000 0.000000 0.000000 0.000000 0.000000 10.000000 
Rope3_Seg02 0.000000 0.000000 0.000000 0.000000 0.000000 0.000000 10.000000 
Rope3_Seg03 0.000000 0.000000 0.000000 0.000000 0.000000 0.000000 10.000000 
Rope3_Seg04 0.000000 0.000000 0.000000 0.000000 0.000000 0.000000 10.000000 
Rope3_Seg05 0.000000 0.000000 0.000000 0.000000 0.000000 0.000000 10.000000 
Rope3_Seg06 0.000000 0.000000 0.000000 0.000000 0.000000 0.000000 10.000000 
Rope3_Seg07 0.000000 0.000000 0.000000 0.000000 0.000000 0.000000 10.000000 
Rope3_Seg08 0.000000 0.000000 0.000000 0.000000 0.000000 0.000000 10.000000 
Rope3_Seg09 0.000000 0.000000 0.000000 0.000000 0.000000 0.000000 10.000000 
R_rear_hand01 0.000000 0.000000 0.000000 0.000000 0.000000 0.000000 10.000000 
R_rear_hand02 0.000000 0.000000 0.000000 0.000000 0.000000 0.000000 10.000000 
R_rear_hand03 0.000000 0.000000 0.000000 0.000000 0.000000 0.000000 10.000000 
Rope4_Seg01 0.000000 0.000000 0.000000 0.000000 0.000000 0.000000 10.000000 
Rope4_Seg02 0.000000 0.000000 0.000000 0.000000 0.000000 0.000000 10.000000 
Rope4_Seg03 0.000000 0.000000 0.000000 0.000000 0.000000 0.000000 10.000000 
Rope4_Seg04 0.000000 0.000000 0.000000 0.000000 0.000000 0.000000 10.000000 
Rope4_Seg05 0.000000 0.000000 0.000000 0.000000 0.000000 0.000000 10.000000 
Rope4_Seg06 0.000000 0.000000 0.000000 0.000000 0.000000 0.000000 10.000000 
Rope4_Seg07 0.000000 0.000000 0.000000 0.000000 0.000000 0.000000 10.000000 
Rope4_Seg08 0.000000 0.000000 0.000000 0.000000 0.000000 0.000000 10.000000 
Rope4_Seg09 0.000000 0.000000 0.000000 0.000000 0.000000 0.000000 10.000000 
L_rear_hand01 0.000000 0.000000 0.000000 0.000000 0.000000 0.000000 10.000000 
L_rear_hand02 0.000000 0.000000 0.000000 0.000000 0.000000 0.000000 10.000000 
L_rear_hand03 0.000000 0.000000 0.000000 0.000000 0.000000 0.000000 10.000000 
#Beginning of Data. Separated by tabs
#Fr	Tx	Ty	Tz	Rx	Ry	Rz	SF
[MASTER]
20 0.000000 0.000000 0.000000 0.001660 0.001660 0.001660 0.000000
21 0.000000 0.000000 0.000000 0.001660 0.001660 0.001660 0.000000
[root]
20 -69.159225 -62.822147 885.431946 -87.276375 -8.888726 -89.887970 890.347900
21 -76.245934 -62.822147 888.816223 -87.637527 -8.436769 -90.002258 894.289856
[chest]
20 -84.512650 -34.090519 0.000000 -0.307809 -0.743092 156.385437 91.129311
21 -84.512650 -34.090519 0.000000 -0.307809 -0.743092 156.385437 91.129311
[L_mid_tent01]
20 23.228750 24.509907 -223.761200 -5.080203 14.019619 0.059948 226.294907
21 23.228750 24.509907 -223.761200 -5.764242 18.863184 0.072411 226.294907
[R_mid_tent01]
20 23.228794 24.509907 226.238495 -163.071991 -14.113873 -8.308092 228.744751
21 23.228794 24.509907 226.238495 -162.925537 -12.133372 -2.319193 228.744751
[spine01]
20 -0.361383 -0.195265 0.000000 0.001815 0.001488 11.320962 0.410763
21 -0.361383 -0.195265 0.000000 0.001815 0.001488 11.320962 0.410763
[Bip01_Neck]
20 165.484543 71.581718 0.000119 175.896118 1.177290 24.871183 180.302734
21 165.484543 71.581718 0.000119 175.896118 1.177290 24.871183 180.302734
[L_humerus]
20 -13.983130 -135.272980 -120.471481 -104.702057 -2.574140 -132.238052 181.680161
21 -13.983130 -135.272980 -120.471481 -104.702057 -2.574140 -132.238052 181.680161
[R_humerus]
20 -13.983309 -135.273102 125.287651 84.935959 -3.633308 -127.041824 184.909012
21 -13.983309 -135.273102 125.287651 84.935951 -3.633305 -127.041824 184.909012
[weapon_bone]
20 235.964890 -300.705902 0.000000 0.000000 -89.951546 -128.212341 382.234833
21 235.964890 -300.705902 0.000000 0.000000 -89.951546 -128.212341 382.234833
[Bip01_Head]
20 201.313812 211.516800 15.929736 2.015675 1.864747 -65.137405 292.438660
21 201.313812 211.516800 15.929736 2.411285 2.357963 -65.131271 292.438660
[eye_left_bone]
20 -24.626970 125.451866 -64.772606 0.000000 -90.000000 -99.840431 143.318359
21 -24.626970 125.451866 -64.772606 0.000000 -90.000000 -99.840431 143.318359
[eye_right_bone]
20 -24.626970 125.451866 64.327362 0.000000 -89.965736 80.156380 143.117676
21 -24.626970 125.451866 64.327362 0.000000 -89.972023 80.156380 143.117676
[L_forearm]
20 322.776093 0.000000 -0.000119 0.000357 -0.002320 -107.506004 322.776093
21 322.776093 0.000000 -0.000119 0.000357 -0.002320 -107.506004 322.776093
[L_front_hand]
20 241.149185 -0.042021 -3.300071 -177.752777 -0.319468 -73.408745 241.171753
21 241.149185 -0.042021 -3.300071 -177.752777 -0.319468 -73.408760 241.171753
[L_weapon_bone]
20 156.183838 0.000000 0.000000 0.000014 0.000007 0.000001 156.183838
21 156.183838 0.000000 0.000000 0.000014 0.000007 0.000001 156.183838
[L_front_hand01_01]
20 86.095154 20.947098 -0.655860 0.139491 -0.584553 24.181786 88.609184
21 86.095154 20.947098 -0.655860 0.139491 -0.584553 24.181786 88.609184
[L_front_hand02_01]
20 86.935165 -11.437475 24.513514 119.190460 -21.905661 -12.119137 91.046425
21 86.935165 -11.437475 24.513514 119.190460 -21.905655 -12.119137 91.046425
[L_front_hand03_01]
20 86.637497 -14.123976 -20.424902 -120.437630 20.554029 -14.327168 90.126129
21 86.637497 -14.123976 -20.424902 -120.437630 20.554029 -14.327168 90.126129
[L_front_hand01_02]
20 71.020905 -0.000179 0.000030 0.000334 -0.002323 -106.379684 71.020905
21 71.020905 -0.000179 0.000030 0.000334 -0.002323 -106.379684 71.020905
[L_front_hand02_02]
20 71.020927 -0.000119 0.000060 0.000334 -0.002323 -106.379684 71.020927
21 71.020927 -0.000119 0.000060 0.000334 -0.002323 -106.379684 71.020927
[L_front_hand03_02]
20 71.020905 -0.000060 0.000060 0.000334 -0.002323 -106.379684 71.020905
21 71.020905 -0.000060 0.000060 0.000334 -0.002323 -106.379684 71.020905
[R_forearm]
20 322.776428 -0.000060 0.000030 0.213176 0.008105 -93.737396 322.776428
21 322.776428 -0.000060 0.000030 0.213176 0.008105 -93.737396 322.776428
[R_front_hand]
20 238.847015 -0.006795 2.210259 -1.721140 -0.139412 -83.351707 238.857239
21 238.847015 -0.006795 2.210259 -1.721140 -0.139412 -83.351707 238.857239
[R_weapon_bone]
20 155.664093 0.002503 -0.000030 0.003487 0.001180 -90.988930 155.664078
21 155.664093 0.002503 -0.000030 0.003487 0.001180 -90.988930 155.664078
[R_front_hand01_01]
20 87.624611 14.231146 22.918642 -119.218056 -22.033409 12.303375 91.683487
21 87.624611 14.231146 22.918642 -119.218071 -22.033403 12.303374 91.683487
[R_front_hand02_01]
20 89.356956 14.367283 -19.491137 120.545532 20.947184 14.823009 92.579636
21 89.356956 14.367283 -19.491137 120.545517 20.947186 14.823009 92.579636
[R_front_hand03_01]
20 87.286232 -22.307278 -0.143439 -0.231628 -0.392922 -24.567768 90.091743
21 87.286232 -22.307278 -0.143439 -0.231628 -0.392922 -24.567768 90.091743
[R_front_hand01_02]
20 71.020905 0.000060 0.000119 0.002323 -0.000334 106.381714 71.020905
21 71.020905 0.000060 0.000119 0.002323 -0.000334 106.381714 71.020905
[R_front_hand02_02]
20 71.020844 -0.000030 -0.000119 0.002323 -0.000334 106.381714 71.020836
21 71.020844 -0.000030 -0.000119 0.002323 -0.000334 106.381714 71.020836
[R_front_hand03_02]
20 71.020905 0.000000 0.000030 0.002323 -0.000334 106.381714 71.020905
21 71.020905 0.000000 0.000030 0.002323 -0.000334 106.381714 71.020905
[null_rope01_connect]
20 328.732483 0.000000 -0.000238 -91.193275 -75.932961 -170.939651 328.732483
21 328.732483 0.000000 -0.000238 -92.465309 -70.886337 -170.515930 328.732483
[Rope1_Seg01]
20 0.000000 0.000000 0.000000 65.117348 -42.871471 -137.401016 0.000000
21 0.000000 0.000000 0.000000 66.640305 -39.154663 -138.510513 0.000000
[Rope1_Seg02]
20 139.999863 -0.000179 0.000000 -6.444675 16.610825 1.337736 139.999863
21 139.999863 -0.000179 0.000000 -7.947461 17.206301 4.721290 139.999863
[Rope1_Seg03]
20 139.999924 0.000060 -0.000060 -20.917835 33.730286 11.880472 139.999924
21 139.999924 0.000060 -0.000060 -17.980339 31.214054 18.191771 139.999924
[Rope1_Seg04]
20 139.999924 -0.000060 -0.000119 -10.170929 11.724380 6.511752 139.999924
21 139.999924 -0.000060 -0.000119 -9.949209 13.211464 14.148912 139.999924
[Rope1_Seg05]
20 139.999832 0.000119 -0.000060 37.352959 -14.688981 -32.529392 139.999832
21 139.999832 0.000119 -0.000060 25.659069 -9.896522 -31.886133 139.999832
[Rope1_Seg06]
20 139.999954 0.000119 -0.000060 9.808468 -9.124335 -5.489872 139.999954
21 139.999954 0.000119 -0.000060 13.011015 -9.317149 -10.612740 139.999954
[Rope1_Seg07]
20 139.999985 0.000060 0.000000 2.739994 -3.083117 -1.358834 139.999985
21 139.999985 0.000060 0.000000 3.536892 -3.202222 -2.522902 139.999985
[Rope1_Seg09]
20 121.602913 0.000119 -0.000089 -89.793175 -1.359789 0.847147 121.602913
21 121.602913 0.000119 -0.000089 -89.793175 -1.359789 0.847147 121.602913
[L_mid_hand01]
20 103.859421 1.038730 8.195221 106.855484 -31.239275 -9.461397 104.187431
21 103.859421 1.038730 8.195221 106.855484 -31.239275 -9.461397 104.187431
[L_mid_hand02]
20 105.572853 -4.139662 -10.864139 -142.331345 25.752670 -28.774628 106.211075
21 105.572853 -4.139662 -10.864139 -142.331345 25.752670 -28.774628 106.211075
[L_mid_hand03]
20 104.641464 17.579376 -3.913581 -16.122810 9.734291 34.223598 106.179977
21 104.641464 17.579376 -3.913581 -16.122810 9.734291 34.223598 106.179977
[null_rope02_connect]
20 328.732849 0.000179 -0.000119 -128.485367 66.072449 -53.944122 328.732849
21 328.732849 0.000179 -0.000119 -138.248703 67.222336 -57.438198 328.732849
[Rope2_Seg01]
20 0.000141 0.000114 -0.000048 81.541862 -35.438187 -103.408867 0.000188
21 0.000140 0.000114 -0.000051 89.735924 -34.083923 -116.475586 0.000188
[Rope2_Seg02]
20 139.999741 -0.000060 -0.000119 1.549845 4.776512 -10.035764 139.999756
21 139.999741 -0.000060 -0.000119 -0.207007 11.216042 -10.633728 139.999756
[Rope2_Seg03]
20 140.000107 0.000030 0.000000 3.028280 4.775883 -10.613157 140.000107
21 140.000107 0.000030 0.000000 2.228361 11.180682 -13.175683 140.000107
[Rope2_Seg04]
20 139.999802 0.000000 -0.000060 2.962933 2.533000 -6.835261 139.999802
21 139.999802 0.000000 -0.000060 2.341748 6.190283 -6.632797 139.999802
[Rope2_Seg05]
20 139.999985 -0.000060 0.000119 -2.315858 -2.123971 5.077891 139.999985
21 139.999985 -0.000060 0.000119 -6.500547 -1.608529 10.152951 139.999985
[Rope2_Seg06]
20 139.999893 -0.000030 -0.000119 -2.188781 -2.514755 5.687517 139.999893
21 139.999893 -0.000030 -0.000119 -4.271919 -2.948713 8.863233 139.999893
[Rope2_Seg07]
20 139.999893 0.000060 -0.000060 -0.696292 -1.093518 2.120371 139.999893
21 139.999893 0.000060 -0.000060 -1.523829 -1.112053 3.702128 139.999893
[Rope2_Seg09]
20 121.338966 0.000089 -0.000060 33.793236 -1.359788 -0.847141 121.338966
21 121.338966 0.000089 -0.000060 33.793236 -1.359788 -0.847141 121.338966
[R_mid_hand01]
20 104.680779 11.144459 -10.335981 -41.523792 25.424656 28.595957 105.778534
21 104.680779 11.144459 -10.335981 -41.523792 25.424656 28.595957 105.778534
[R_mid_hand02]
20 104.070427 2.443552 8.231699 72.847389 -32.746803 10.013901 104.424065
21 104.070427 2.443552 8.231699 72.847389 -32.746803 10.013901 104.424065
[R_mid_hand03]
20 106.028137 -11.221827 -5.996406 -167.901306 10.259192 -37.009720 106.788818
21 106.028137 -11.221827 -5.996406 -167.901306 10.259192 -37.009720 106.788818
[spine02]
20 129.756927 0.001550 0.000119 0.001147 -1.797837 -7.854275 129.756927
21 129.756927 0.001550 0.000119 0.001147 -1.797837 -7.854274 129.756927
[spine03]
20 79.115631 0.000000 -0.000119 1.459971 -2.848092 23.765963 79.115631
21 79.115631 0.000000 -0.000119 1.459971 -2.848092 23.765959 79.115631
[pelvis]
20 169.435242 0.051022 0.000000 -0.000005 0.000003 -4.322055 169.435257
21 169.435242 0.051022 0.000000 -0.000005 0.000003 -4.322055 169.435257
[null_rope03_connect]
20 -1.257226 -2.466202 137.391083 44.060154 -83.279556 31.925325 137.418976
21 -1.257226 -2.466202 137.391083 44.730991 -83.653122 30.798601 137.418976
[null_rope04_connect]
20 -1.259640 -2.480268 -137.844437 44.060154 -83.279556 31.925325 137.872513
21 -1.259640 -2.480268 -137.844437 44.730991 -83.653122 30.798601 137.872513
[Rope3_Seg01]
20 0.000010 0.000026 -0.000104 -131.075043 -4.761654 -51.201473 0.000108
21 0.000010 0.000025 -0.000102 -131.653229 -6.076147 -49.263882 0.000105
[Rope3_Seg02]
20 139.999924 -0.000119 0.000060 -0.288384 4.185410 4.258144 139.999924
21 139.999924 -0.000119 0.000060 -0.101276 3.083145 3.715139 139.999924
[Rope3_Seg03]
20 139.999924 -0.000119 0.000119 -0.098434 5.818652 6.026107 139.999924
21 139.999924 -0.000119 0.000119 -0.021173 4.231445 5.144678 139.999924
[Rope3_Seg04]
20 139.999924 0.000119 0.000000 0.373504 8.308668 8.799451 139.999924
21 139.999924 0.000119 0.000000 0.154645 5.996073 7.364269 139.999924
[Rope3_Seg05]
20 139.999924 -0.000238 0.000060 2.977370 14.728958 16.820034 139.999924
21 139.999924 -0.000238 0.000060 1.411937 10.267558 14.012579 139.999924
[Rope3_Seg06]
20 139.999893 -0.000119 -0.000060 2.959110 10.048042 10.197197 139.999893
21 139.999893 -0.000119 -0.000060 2.282472 10.758423 13.327374 139.999893
[Rope3_Seg07]
20 139.999771 0.000060 -0.000119 1.146948 -0.157040 -1.933850 139.999771
21 139.999771 0.000060 -0.000119 2.032543 4.538161 2.027799 139.999771
[Rope3_Seg08]
20 139.999985 -0.000060 0.000000 0.851577 -1.480275 -2.977402 139.999985
21 139.999985 -0.000060 0.000000 1.754515 2.189708 -0.429829 139.999985
[Rope3_Seg09]
20 90.185997 -0.000179 -0.000060 89.793228 -1.359877 -0.847183 90.185997
21 90.185997 -0.000179 -0.000060 89.793228 -1.359877 -0.847183 90.185997
[R_rear_hand01]
20 103.366196 -6.073594 -10.757982 -161.551193 16.666374 -30.088671 104.101845
21 103.366196 -6.073594 -10.757982 -161.551193 16.666374 -30.088671 104.101845
[R_rear_hand02]
20 100.509819 12.039542 -7.992327 -34.280552 19.289745 28.875523 101.543350
21 100.509819 12.039542 -7.992327 -34.280552 19.289745 28.875523 101.543350
[R_rear_hand03]
20 101.539970 5.215704 5.435467 83.366440 -30.933914 7.284830 101.819031
21 101.539970 5.215704 5.435467 83.366440 -30.933914 7.284830 101.819031
[Rope4_Seg01]
20 0.000010 0.000038 -0.000114 7.764262 -8.624521 -29.766016 0.000121
21 0.000010 0.000038 -0.000114 8.652059 -10.519588 -31.582256 0.000121
[Rope4_Seg02]
20 139.999985 0.000060 0.000119 22.334932 -0.970396 -22.091328 139.999985
21 139.999985 0.000060 0.000119 19.826815 0.777621 -18.857431 139.999985
[Rope4_Seg03]
20 139.999924 0.000000 -0.000238 12.387959 -10.854457 -24.648880 139.999924
21 139.999924 0.000000 -0.000238 12.133344 -6.365309 -20.701813 139.999924
[Rope4_Seg04]
20 139.999985 0.000000 0.000119 4.728737 -12.981935 -20.105362 139.999985
21 139.999985 0.000000 0.000119 5.861042 -8.686432 -18.009100 139.999985
[Rope4_Seg05]
20 139.999802 -0.000060 -0.000119 0.235986 -5.600518 -7.417696 139.999802
21 139.999802 -0.000060 -0.000119 1.234416 -5.404438 -8.432043 139.999802
[Rope4_Seg06]
20 139.999924 0.000000 0.000060 0.026371 -1.862770 -1.824051 139.999924
21 139.999924 0.000000 0.000060 0.267019 -3.424744 -3.410986 139.999924
[Rope4_Seg07]
20 139.999802 0.000000 0.000000 0.369478 0.124929 1.649034 139.999802
21 139.999802 0.000000 0.000000 0.186047 -3.266284 -1.087222 139.999802
[Rope4_Seg08]
20 139.999924 0.000000 0.000119 -1.276077 -0.152771 1.234927 139.999924
21 139.999924 0.000000 0.000119 -1.406243 -3.204928 -1.676027 139.999924
[Rope4_Seg09]
20 90.185791 0.000060 0.000060 -135.617828 2.228885 0.850567 90.185791
21 90.185791 0.000060 0.000060 -135.617828 2.228885 0.850567 90.185791
[L_rear_hand01]
20 101.696655 -8.392275 -7.654577 -34.454281 -18.946800 151.655121 102.329041
21 101.696655 -8.392275 -7.654577 -34.454281 -18.946800 151.655121 102.329041
[L_rear_hand02]
20 102.726799 -1.568258 5.773216 83.407906 30.330435 172.796509 102.900848
21 102.726799 -1.568258 5.773216 83.407906 30.330435 172.796509 102.900848
[L_rear_hand03]
20 104.552910 9.721220 -10.420293 -161.379868 -16.473232 -150.512238 105.519653
21 104.552910 9.721220 -10.420293 -161.379868 -16.473232 -150.512238 105.519653
